<?xml version="1.0" encoding="UTF-8"?>
<svg width="103.23" height="88.036" version="1.1" viewBox="0 0 103.23025 88.036049" xml:space="preserve" xmlns="http://www.w3.org/2000/svg" xmlns:xlink="http://www.w3.org/1999/xlink"><defs><radialGradient id="m" cx="64.3" cy="-30.925" r="50.452" gradientTransform="matrix(1 0 0 -1 0 -61.85)" gradientUnits="userSpaceOnUse"><stop stop-color="#CCEFE7" stop-opacity="0" offset="0"/><stop stop-color="#C7EDDC" stop-opacity=".0431" offset=".0627"/><stop stop-color="#BAE9C1" stop-opacity=".1686" offset=".1686"/><stop stop-color="#A5E193" stop-opacity=".3725" offset=".3059"/><stop stop-color="#88D755" stop-opacity=".651" offset=".4706"/><stop stop-color="#66C912" offset=".651"/></radialGradient><linearGradient id="j" x1="16161" x2="16221" y1="-58.467" y2="-58.467" gradientTransform="matrix(1.6549e-5 1 -1 -.001 .8657 -16221)" gradientUnits="userSpaceOnUse"><stop stop-color="#E2B8B2" offset=".1294"/><stop stop-color="#fff" offset=".9255"/></linearGradient><linearGradient id="k" x1="-143.59" x2="-56.705" y1="89.662" y2="89.662" gradientTransform="matrix(1.1517e-5 -1 1 -.001 .00011001 .00044493)" gradientUnits="userSpaceOnUse"><stop stop-color="#698424" offset=".3569"/><stop stop-color="#7B9E33" offset=".4627"/><stop stop-color="#9DCF52" offset=".6314"/><stop stop-color="#DAE772" offset=".9647"/></linearGradient><linearGradient id="l" x1="117" x2="134.65" y1="-102.02" y2="-102.02" gradientTransform="matrix(-.0779 .997 -1.0015 -.0192 -.00047474 8.538e-5)" gradientUnits="userSpaceOnUse"><stop stop-color="#BFA04A" offset="0"/><stop stop-color="#FCE191" offset="1"/></linearGradient><linearGradient id="a" x1="193.11" x2="210.76" y1="-16807" y2="-16807" gradientTransform="matrix(-.0779 -.997 1.0015 -.0192 16857 -179.21)" gradientUnits="userSpaceOnUse"><stop stop-color="#BFA04A" offset="0"/><stop stop-color="#FCE191" offset="1"/></linearGradient></defs>
<symbol id="h" transform="translate(-51.545 -52.704)" viewBox="-0.013 -69.264 52.449 69.292">
		<g fill-rule="evenodd">
			<path d="m48.2-4.3c-0.567 0.733-1.65 0.417-3.25-0.95-1.667-1.433-2.417-3.1-2.25-5 0.167-1.833-0.434-2.583-1.8-2.25-1.433 0.367-2.033 0.9-1.8 1.6 0.433 1.533 0.9 2.917 1.4 4.15 0.967 2.367 1.983 3.817 3.05 4.35s2.167 0.383 3.3-0.45c0.567-0.433 1.017-0.917 1.35-1.45z" fill="#d1b25d"/>
			<path d="m51-2.35v-0.05c0.8-0.767 1.267-1.8 1.4-3.1s-0.1-2.467-0.7-3.5c-0.367-0.633-2.717-3.733-7.05-9.3-5.8-7.367-10.233-12.983-13.3-16.85l-8.65-10.95c-1.7-2.2-2.55-4.283-2.55-6.25-0.066-2.867-0.25-5.017-0.55-6.45-0.733-3.534-2.25-6.333-4.55-8.4-1.9-1.7-4.167-2.35-6.8-1.95-1.3 0.2-2.417 0.566-3.35 1.1-1 0.533-1.917 1.3-2.75 2.3-1.667 1.933-2.1 4-1.3 6.2 1.1 2.966 3.517 5.583 7.25 7.85 2.1 1.267 4.417 2.317 6.95 3.15 1.133 0.433 2.25 1.283 3.35 2.55 0.934 1.267 1.45 1.967 1.55 2.1v-0.1l7.15 12.05c3.367 5.567 8.25 13.817 14.65 24.75-0.233-1.2-0.033-2.017 0.6-2.45 0.467-0.333 1.066-0.317 1.8 0.05s1.367 0.983 1.9 1.85c0.534 0.833 0.833 1.667 0.9 2.5 0.033 0.833-0.184 1.433-0.65 1.8-0.733 0.467-1.633 0.25-2.7-0.65l1.95 3.05c0.633 0.767 1.417 0.966 2.35 0.6 0.067-0.033 0.95-0.566 2.65-1.6h0.05l0.4-0.3z" fill="#c6a954"/>
			<path d="m48.6-0.85c0.8-0.8 1.267-1.85 1.4-3.15 0.1-1.267-0.133-2.433-0.7-3.5-0.367-0.667-2.716-3.767-7.05-9.3-5.833-7.367-10.283-12.983-13.35-16.85l-8.6-10.95c-1.7-2.2-2.566-4.283-2.6-6.25 0-2.7-0.167-4.85-0.5-6.45-0.733-3.5-2.25-6.284-4.55-8.35-3-2.7-6.233-3.033-9.7-1v0.05h-0.05c-0.933 0.833-1.65 1.8-2.15 2.9-1 2.167-1.017 4.483-0.05 6.95 1.133 2.9 3.2 5.283 6.2 7.15 1.3 0.8 3.2 1.667 5.7 2.6 1.167 0.4 2.3 1.233 3.4 2.5 0.933 1.267 1.45 1.967 1.55 2.1v-0.1l7.15 12.05c2.567 4.267 6.25 10.45 11.05 18.55 3.667 6.1 5.733 9.433 6.2 10 0.767 0.9 1.75 1.5 2.95 1.8 1.233 0.267 2.317 0.117 3.25-0.45l0.05 0.05 0.2-0.2 0.2-0.15zm-1.65-4.4c0.033 0.833-0.184 1.433-0.65 1.8-0.466 0.333-1.066 0.317-1.8-0.05-0.767-0.4-1.417-1.017-1.95-1.85-0.566-0.867-0.867-1.717-0.9-2.55s0.2-1.417 0.7-1.75c0.467-0.333 1.066-0.317 1.8 0.05s1.367 0.983 1.9 1.85c0.533 0.833 0.833 1.667 0.9 2.5z" fill="#fce191"/>
			<g fill="#eacc76">
				<path d="m41.85-9c0.133-0.3 0.3-0.517 0.5-0.65 0.167-0.133 0.417-0.2 0.75-0.2-0.533-1.3-1.184-2.983-1.95-5.05l-2.05-5.85-3.55-4.5c1.5 4.667 3.6 10.083 6.3 16.25z"/>
				<path d="m23-41.15-2.7-3.45c-1.4-1.867-2.233-3.6-2.5-5.2l-0.45-0.4c-0.434-0.4-2.333-1.316-5.7-2.75-2.933-1.2-4.867-2.6-5.8-4.2-1.133-1.967-2.35-4.867-3.65-8.7-0.333 0.333-0.684 0.817-1.05 1.45 1.067 2.567 2.35 4.967 3.85 7.2 2.067 3.1 4.2 5.25 6.4 6.45 2.9 1.567 5.717 4.35 8.45 8.35 2.867 4.233 4.517 8.267 4.95 12.1l4.4 7.4c-0.3-0.967-1.2-3.833-2.7-8.6-0.967-3.033-1.667-5.117-2.1-6.25l-1.4-3.4z"/>
				<path d="m8.5-67.8c1.433 3.133 2.667 5.466 3.7 7 1.566 2.333 3.316 4 5.25 5-0.233-1.733-0.7-3.4-1.4-5-2.2-1.1-3.617-2.434-4.25-4-0.233-0.6-0.4-1.233-0.5-1.9-0.9-0.567-1.833-0.933-2.8-1.1z"/>
				<path d="m41.95-1.9c0.5 0.533 1.033 0.95 1.6 1.25-1.833-3.067-3.683-6.5-5.55-10.3-1.767-3.633-3.017-6.566-3.75-8.8-0.733-2.2-1.483-5.533-2.25-10l-4-5.1c2.7 9.4 4.867 16.35 6.5 20.85 4.6 7.633 7.083 11.667 7.45 12.1z"/>
				<path d="m48.9-1.25c0.3-0.4 0.55-0.85 0.75-1.35-0.467-1.3-1.167-3.733-2.1-7.3l-4.75-6.15 3.2 8.2 0.05 0.1c0.467 0.667 0.75 1.333 0.85 2 0.667 1.667 1.333 3.167 2 4.5z"/>
				<path d="m0.7-56.75c1.3 3.233 3.7 5.817 7.2 7.75-3.567-3.233-5.967-5.817-7.2-7.75z"/>
				<path d="m44.3-3.6 1.8 3.6c0.633-0.067 1.167-0.183 1.6-0.35l-1.6-3c-0.5 0.2-1.1 0.117-1.8-0.25z"/>
			</g>
			<path d="m12.75-51.15c1.633-0.5 2.45-1.867 2.45-4.1 0-2.033-0.583-3.95-1.75-5.75-1.733-2.6-3.483-4.233-5.25-4.9-2.034-0.767-3.8-0.184-5.3 1.75-1.533 1.967-0.867 4.8 2 8.5 2.9 3.7 5.517 5.2 7.85 4.5z" fill="#fdf3d0"/>
			<path d="m12.55-50.3c1.633-0.5 2.45-1.867 2.45-4.1 0-2.067-0.6-3.983-1.8-5.75-1.733-2.6-3.483-4.25-5.25-4.95-1.967-0.767-3.717-0.183-5.25 1.75-1.567 2-0.9 4.85 2 8.55 2.867 3.7 5.483 5.2 7.85 4.5z" fill="url(#a)"/>
		</g>
</symbol>
<symbol id="i" transform="translate(-51.545 -52.704)" viewBox="-0.013 -69.264 52.449 69.292">
		<g fill-rule="evenodd">
			<path d="m48.2-4.3c-0.567 0.733-1.65 0.417-3.25-0.95-1.667-1.433-2.417-3.1-2.25-5 0.167-1.833-0.434-2.583-1.8-2.25-1.433 0.367-2.033 0.9-1.8 1.6 0.433 1.533 0.9 2.917 1.4 4.15 0.967 2.367 1.983 3.817 3.05 4.35s2.167 0.383 3.3-0.45c0.567-0.433 1.017-0.917 1.35-1.45z" fill="#d1b25d"/>
			<path d="m51-2.35v-0.05c0.8-0.767 1.267-1.8 1.4-3.1s-0.1-2.467-0.7-3.5c-0.367-0.633-2.717-3.733-7.05-9.3-5.8-7.367-10.233-12.983-13.3-16.85l-8.65-10.95c-1.7-2.2-2.55-4.283-2.55-6.25-0.066-2.867-0.25-5.017-0.55-6.45-0.733-3.534-2.25-6.333-4.55-8.4-1.9-1.7-4.167-2.35-6.8-1.95-1.3 0.2-2.417 0.566-3.35 1.1-1 0.533-1.917 1.3-2.75 2.3-1.667 1.933-2.1 4-1.3 6.2 1.1 2.966 3.517 5.583 7.25 7.85 2.1 1.267 4.417 2.317 6.95 3.15 1.133 0.433 2.25 1.283 3.35 2.55 0.934 1.267 1.45 1.967 1.55 2.1v-0.1l7.15 12.05c3.367 5.567 8.25 13.817 14.65 24.75-0.233-1.2-0.033-2.017 0.6-2.45 0.467-0.333 1.066-0.317 1.8 0.05s1.367 0.983 1.9 1.85c0.534 0.833 0.833 1.667 0.9 2.5 0.033 0.833-0.184 1.433-0.65 1.8-0.733 0.467-1.633 0.25-2.7-0.65l1.95 3.05c0.633 0.767 1.417 0.966 2.35 0.6 0.067-0.033 0.95-0.566 2.65-1.6h0.05l0.4-0.3z" fill="#c6a954"/>
			<path d="m48.6-0.85c0.8-0.8 1.267-1.85 1.4-3.15 0.1-1.267-0.133-2.433-0.7-3.5-0.367-0.667-2.716-3.767-7.05-9.3-5.833-7.367-10.283-12.983-13.35-16.85l-8.6-10.95c-1.7-2.2-2.566-4.283-2.6-6.25 0-2.7-0.167-4.85-0.5-6.45-0.733-3.5-2.25-6.284-4.55-8.35-3-2.7-6.233-3.033-9.7-1v0.05h-0.05c-0.933 0.833-1.65 1.8-2.15 2.9-1 2.167-1.017 4.483-0.05 6.95 1.133 2.9 3.2 5.283 6.2 7.15 1.3 0.8 3.2 1.667 5.7 2.6 1.167 0.4 2.3 1.233 3.4 2.5 0.933 1.267 1.45 1.967 1.55 2.1v-0.1l7.15 12.05c2.567 4.267 6.25 10.45 11.05 18.55 3.667 6.1 5.733 9.433 6.2 10 0.767 0.9 1.75 1.5 2.95 1.8 1.233 0.267 2.317 0.117 3.25-0.45l0.05 0.05 0.2-0.2 0.2-0.15zm-1.65-4.4c0.033 0.833-0.184 1.433-0.65 1.8-0.466 0.333-1.066 0.317-1.8-0.05-0.767-0.4-1.417-1.017-1.95-1.85-0.566-0.867-0.867-1.717-0.9-2.55s0.2-1.417 0.7-1.75c0.467-0.333 1.066-0.317 1.8 0.05s1.367 0.983 1.9 1.85c0.533 0.833 0.833 1.667 0.9 2.5z" fill="#fce191"/>
			<g fill="#eacc76">
				<path d="m41.85-9c0.133-0.3 0.3-0.517 0.5-0.65 0.167-0.133 0.417-0.2 0.75-0.2-0.533-1.3-1.184-2.983-1.95-5.05l-2.05-5.85-3.55-4.5c1.5 4.667 3.6 10.083 6.3 16.25z"/>
				<path d="m23-41.15-2.7-3.45c-1.4-1.867-2.233-3.6-2.5-5.2l-0.45-0.4c-0.434-0.4-2.333-1.316-5.7-2.75-2.933-1.2-4.867-2.6-5.8-4.2-1.133-1.967-2.35-4.867-3.65-8.7-0.333 0.333-0.684 0.817-1.05 1.45 1.067 2.567 2.35 4.967 3.85 7.2 2.067 3.1 4.2 5.25 6.4 6.45 2.9 1.567 5.717 4.35 8.45 8.35 2.867 4.233 4.517 8.267 4.95 12.1l4.4 7.4c-0.3-0.967-1.2-3.833-2.7-8.6-0.967-3.033-1.667-5.117-2.1-6.25l-1.4-3.4z"/>
				<path d="m8.5-67.8c1.433 3.133 2.667 5.466 3.7 7 1.566 2.333 3.316 4 5.25 5-0.233-1.733-0.7-3.4-1.4-5-2.2-1.1-3.617-2.434-4.25-4-0.233-0.6-0.4-1.233-0.5-1.9-0.9-0.567-1.833-0.933-2.8-1.1z"/>
				<path d="m41.95-1.9c0.5 0.533 1.033 0.95 1.6 1.25-1.833-3.067-3.683-6.5-5.55-10.3-1.767-3.633-3.017-6.566-3.75-8.8-0.733-2.2-1.483-5.533-2.25-10l-4-5.1c2.7 9.4 4.867 16.35 6.5 20.85 4.6 7.633 7.083 11.667 7.45 12.1z"/>
				<path d="m48.9-1.25c0.3-0.4 0.55-0.85 0.75-1.35-0.467-1.3-1.167-3.733-2.1-7.3l-4.75-6.15 3.2 8.2 0.05 0.1c0.467 0.667 0.75 1.333 0.85 2 0.667 1.667 1.333 3.167 2 4.5z"/>
				<path d="m0.7-56.75c1.3 3.233 3.7 5.817 7.2 7.75-3.567-3.233-5.967-5.817-7.2-7.75z"/>
				<path d="m44.3-3.6 1.8 3.6c0.633-0.067 1.167-0.183 1.6-0.35l-1.6-3c-0.5 0.2-1.1 0.117-1.8-0.25z"/>
			</g>
			<path d="m12.75-51.15c1.633-0.5 2.45-1.867 2.45-4.1 0-2.033-0.583-3.95-1.75-5.75-1.733-2.6-3.483-4.233-5.25-4.9-2.034-0.767-3.8-0.184-5.3 1.75-1.533 1.967-0.867 4.8 2 8.5 2.9 3.7 5.517 5.2 7.85 4.5z" fill="#fdf3d0"/>
			<path d="m12.55-50.3c1.633-0.5 2.45-1.867 2.45-4.1 0-2.067-0.6-3.983-1.8-5.75-1.733-2.6-3.483-4.25-5.25-4.95-1.967-0.767-3.717-0.183-5.25 1.75-1.567 2-0.9 4.85 2 8.55 2.867 3.7 5.483 5.2 7.85 4.5z" fill="url(#a)"/>
		</g>
</symbol>
<symbol transform="translate(-51.545 -52.704)" viewBox="0 -61.85 128.6 61.85">
		<path d="m128.05-0.25 0.55 0.25c-0.63-17.2-7.17-31.8-19.6-43.8-12.467-12.033-27.383-18.05-44.75-18.05-17.033 0-31.733 5.817-44.1 17.45-12.367 11.567-19.083 25.767-20.15 42.6 4.967-13 13.183-23.5 24.65-31.5 11.7-8.2 24.733-12.3 39.1-12.3 14.633 0 27.883 4.25 39.75 12.75 11.6 8.333 19.783 19.2 24.55 32.6z" fill="url(#m)" fill-rule="evenodd"/>
</symbol>
<symbol transform="translate(-51.545 -52.704)" viewBox="0 -66.434 119.2 66.434">
		<path d="m115.4-37.25c2.533-6.1 3.8-11.85 3.8-17.25 0-5.367-1.567-8.75-4.7-10.15-2.533-1.133-6.783-1.117-12.75 0.05-7.867 1.9-14.183 3.367-18.95 4.4-8.667 1.833-16.4 2.75-23.2 2.75-6.833 0-14.567-1-23.2-3-9.033-2.367-15.35-3.966-18.95-4.8-6-1.367-10.25-1.55-12.75-0.55-3.133 1.267-4.7 4.583-4.7 9.95 0 5.967 1.267 12.117 3.8 18.45 2.667 6.7 6.434 12.733 11.3 18.1 11.6 12.867 26.433 19.3 44.5 19.3 17.833 0 32.65-6.5 44.45-19.5 4.833-5.333 8.617-11.25 11.35-17.75z" fill="#fff" fill-rule="evenodd"/>
</symbol>
<symbol transform="translate(-51.545 -52.704)" viewBox="0 -60.45 119.2 60.45">
		<path d="m104.05-19.5c4.833-5.333 8.617-11.25 11.35-17.75 2.533-6.1 3.8-11.85 3.8-17.25 0-1.967-0.167-3.567-0.5-4.8-2 11.966-7.85 22.6-17.55 31.9-11.433 11-25.283 16.5-41.55 16.5-16.5 0-30.4-5.483-41.7-16.45-9.767-9.433-15.567-20.467-17.4-33.1-0.333 1.233-0.5 2.767-0.5 4.6 0 5.967 1.267 12.117 3.8 18.45 2.667 6.7 6.434 12.733 11.3 18.1 11.6 12.867 26.433 19.3 44.5 19.3 17.833 0 32.65-6.5 44.45-19.5z" fill="url(#j)" fill-rule="evenodd"/>
</symbol>
<g transform="translate(-51.545 -52.704)">
<g transform="translate(13.507 -3.8096)"><path d="m137.15 68.6c0.267 0.167 0.416 0.283 0.449 0.35l0.25 0.15c0.434 0.333 0.784 0.7 1.051 1.1 1.3 1.566 2.033 3.433 2.199 5.6 0.2 2.167-0.216 4.184-1.25 6.05-0.433 0.8-4.383 5.95-11.85 15.45l1.7 22.8c0.166 2.167-0.467 4.084-1.9 5.75-1.399 1.634-3.184 2.534-5.35 2.7l-14.101 1.05c-0.933 4.867-2.983 8.75-6.149 11.65-2.467 2.2-5.334 3.3-8.601 3.3-2.566 0-4.949-0.6-7.149-1.8-1.167-0.767-2-1.384-2.5-1.85l-0.55-0.5c-2.533-2.4-3.917-5.267-4.15-8.601l-9.6 0.7h-0.351c-0.5 0-1-0.083-1.5-0.25-0.5 0.267-1.1 0.434-1.8 0.5l-15 1.15h-0.6c-2.033 0-3.816-0.7-5.35-2.101-1.5-1.366-2.333-3.083-2.5-5.149l-4.35-58.45c-0.167-2.167 0.45-4.067 1.85-5.7 1.434-1.667 3.233-2.583 5.4-2.75l26.9-2c2.167-0.167 4.066 0.467 5.7 1.9 1.667 1.4 2.567 3.184 2.7 5.35v0.2l37.3-2.8c1.566 0 3 0.434 4.3 1.3 1.267 0.833 2.217 1.933 2.851 3.3 2.133-1.133 4.333-1.483 6.6-1.05 0.634 0.133 1.267 0.333 1.9 0.6l3.449 2.05z" fill="#ecf8bd" fill-rule="evenodd"/><path d="m137.15 67.5 0.449 0.35 0.25 0.15c0.334 0.267 0.684 0.633 1.051 1.1 1.3 1.566 2.033 3.433 2.199 5.6 0.2 2.2-0.216 4.216-1.25 6.05-0.433 0.8-4.383 5.95-11.85 15.45l1.7 22.85c0.166 2.167-0.467 4.066-1.9 5.7-1.399 1.634-3.184 2.533-5.35 2.7l-14.101 1.05c-0.899 4.9-2.949 8.783-6.149 11.65-2.434 2.233-5.3 3.35-8.601 3.35-2.5 0-4.883-0.616-7.149-1.85-1.167-0.767-2-1.384-2.5-1.851l-0.55-0.45c-2.533-2.399-3.917-5.283-4.15-8.649l-9.6 0.7h-0.351c-0.6 0-1.1-0.067-1.5-0.2-0.633 0.3-1.233 0.467-1.8 0.5l-15.6 1.149c-2.033 0-3.816-0.699-5.35-2.1-1.5-1.4-2.333-3.134-2.5-5.2l-4.35-58.45c-0.167-2.167 0.45-4.067 1.85-5.7 1.434-1.633 3.233-2.533 5.4-2.7l26.9-2.05c2.167-0.133 4.066 0.5 5.7 1.9 1.667 1.434 2.567 3.217 2.7 5.35v0.2l37.3-2.8c1.566 0 3 0.434 4.3 1.3 1.267 0.833 2.217 1.933 2.851 3.3 2.233-1.133 4.434-1.466 6.6-1 0.8 0.167 1.434 0.35 1.9 0.55l0.899 0.45 2.55 1.6z" fill="url(#k)" fill-rule="evenodd"/><path d="m137.15 67.5-2.551-1.6-0.899-0.45c-0.467-0.2-1.101-0.384-1.9-0.55-2.166-0.466-4.366-0.133-6.6 1-0.634-1.367-1.584-2.466-2.851-3.3-1.3-0.867-2.733-1.3-4.3-1.3l-37.3 2.8v-0.2c-0.133-2.133-1.033-3.917-2.7-5.35-1.633-1.4-3.533-2.033-5.7-1.9l-26.9 2.05c-2.167 0.167-3.967 1.066-5.4 2.7-1.4 1.633-2.017 3.534-1.85 5.7l4.35 58.45c0.167 2.066 1 3.8 2.5 5.2 1.534 1.4 3.317 2.1 5.35 2.1l15.6-1.15c0.567-0.033 1.167-0.2 1.8-0.5 0.4 0.133 0.9 0.2 1.5 0.2h0.35l9.6-0.7c0.233 3.366 1.617 6.25 4.15 8.649l0.55 0.45c0.5 0.467 1.333 1.084 2.5 1.851 2.267 1.233 4.649 1.85 7.149 1.85 3.301 0 6.167-1.116 8.601-3.35 3.2-2.867 5.25-6.75 6.149-11.65l14.101-1.05c2.166-0.167 3.95-1.066 5.35-2.7 1.434-1.634 2.066-3.533 1.9-5.7l-1.7-22.85c7.467-9.5 11.417-14.65 11.85-15.45 1.034-1.833 1.45-3.85 1.25-6.05-0.166-2.167-0.899-4.034-2.199-5.6-0.367-0.467-0.717-0.833-1.051-1.1l-0.25-0.15-0.45-0.35z" fill="none" stroke="#dff39b" stroke-width=".25"/><path d="m129.2 76.7c0.1-0.1 0.25-0.367 0.45-0.8l0.25-0.8c-1.134 0.867-1.851 1.883-2.15 3.05 0.533-0.3 1.017-0.783 1.45-1.45zm-87.2-9.9c-0.1-1.1 0.217-2.066 0.95-2.9 0.733-0.867 1.65-1.333 2.75-1.4l26.9-2.05c1.133-0.067 2.117 0.267 2.95 1 0.867 0.733 1.333 1.65 1.4 2.75l0.3 4 40.55-3.05h0.25c1.066 0 2 0.35 2.8 1.05 0.767 0.733 1.184 1.616 1.25 2.65l0.45 5.95 2.25-3.55 0.101-0.1 0.1-0.2 0.15-0.2 0.85-0.8 1-0.65c1.366-0.733 2.717-0.966 4.05-0.7 0.434 0.1 0.867 0.25 1.3 0.45l0.25 0.1 2.95 1.9 0.25 0.35c0.867 0.934 1.367 2.117 1.5 3.55 0.134 1.4-0.133 2.716-0.8 3.95-0.5 0.9-4.634 6.267-12.4 16.1l1.801 24.3c0.066 1.134-0.25 2.117-0.95 2.95-0.733 0.866-1.65 1.333-2.75 1.4l-14.851 1.1c-0.267 0.033-0.5-0.033-0.699-0.2-0.2-0.166-0.301-0.383-0.301-0.649l-0.35-4.05c0-0.3 0.083-0.533 0.25-0.699l0.15-0.15c0.333-0.366 0.5-0.85 0.5-1.45-0.034-0.233-0.084-0.399-0.15-0.5-1.134 1.733-1.7 3.316-1.7 4.75v0.351c0 2.666-0.217 4.949-0.649 6.85-0.834 3.467-2.417 6.25-4.75 8.35-1.733 1.534-3.75 2.301-6.051 2.301-1.199 0-2.416-0.217-3.649-0.65-1.033-0.4-1.566-0.616-1.601-0.65-0.633-0.366-1.3-0.866-2-1.5l-0.05-0.05-0.2-0.149c-0.966-0.867-1.733-1.95-2.3-3.25-0.966-2.167-1.066-4.45-0.3-6.851l-14.1 1.05c-0.267 0.034-0.5-0.033-0.7-0.199-0.2-0.167-0.317-0.384-0.35-0.65l-0.3-4.05c0-0.3 0.083-0.533 0.25-0.7l0.1-0.15c0.4-0.399 0.567-0.883 0.5-1.449-0.033-0.467-0.233-0.884-0.6-1.25-0.367-0.334-0.8-0.5-1.3-0.5h-0.15c-0.467 0.033-0.9 0.25-1.3 0.649-0.333 0.467-0.483 0.934-0.45 1.4 0.033 0.533 0.267 0.983 0.7 1.35l0.15 0.101c0.167 0.133 0.283 0.35 0.35 0.649l0.3 4.05c0.033 0.267-0.033 0.5-0.2 0.7-0.2 0.2-0.433 0.316-0.7 0.351l-15 1.1-0.3 0.05c-1.033 0-1.95-0.366-2.75-1.1-0.767-0.7-1.2-1.584-1.3-2.65l-4.35-58.5z" fill="#22480e" fill-rule="evenodd"/><path d="m43.35 66.7c-0.033-0.733 0.183-1.384 0.65-1.95 0.467-0.533 1.067-0.833 1.8-0.9l26.9-2.05c0.767-0.033 1.433 0.184 2 0.65 0.566 0.5 0.867 1.116 0.9 1.85l0.4 5.35 41.9-3.15c0.733-0.033 1.383 0.184 1.949 0.65 0.567 0.467 0.867 1.067 0.9 1.8l3.8 50.45c0.066 0.767-0.149 1.433-0.649 2-0.5 0.566-1.117 0.866-1.851 0.899l-14.399 1.101-0.25-3.5c0.6-0.733 0.883-1.551 0.85-2.45-0.066-0.9-0.45-1.65-1.15-2.25-0.666-0.566-1.449-0.816-2.35-0.75s-1.65 0.45-2.25 1.149c-0.566 0.667-0.833 1.45-0.8 2.351 0.1 0.934 0.5 1.7 1.2 2.3l0.25 3.45-33.45 2.55-0.25-3.5c0.633-0.733 0.9-1.55 0.8-2.45-0.033-0.899-0.4-1.649-1.1-2.25-0.7-0.566-1.5-0.816-2.4-0.75s-1.65 0.45-2.25 1.15c-0.567 0.666-0.817 1.45-0.75 2.35 0.067 0.934 0.467 1.7 1.2 2.3l0.25 3.45-14.6 1.101c-0.733 0.066-1.383-0.15-1.95-0.65-0.533-0.467-0.833-1.066-0.9-1.8l-4.4-58.5z" fill="#fef8ee" fill-rule="evenodd"/><path d="m50.1 81.3c0 0.267 0.117 0.367 0.35 0.3 0.267 0 0.367-0.117 0.3-0.35-0.033-0.5-0.067-1-0.1-1.5 0-1 0.067-1.5 0.2-1.5 0.133-0.033 0.25 0.467 0.35 1.5 0.066 0.5 0.117 1 0.15 1.5 0 0.233 0.133 0.35 0.4 0.35 0.2 0 0.3-0.133 0.3-0.4l-0.2-2.5c0.4 0.366 0.733 0.883 1 1.55 0.267 0.633 0.433 1.233 0.5 1.8 0.1 1.267-0.3 2.184-1.2 2.75l0.65 8.851c0.067 0.5-0.183 0.783-0.75 0.85-0.5 0.066-0.783-0.184-0.85-0.75l-0.65-8.85c-1-0.4-1.55-1.233-1.65-2.5-0.066-1.466 0.267-2.65 1-3.55l0.2 2.449z" fill="#724c26" fill-rule="evenodd"/><path d="m57.25 77.3c0.3 0 0.45 0.134 0.45 0.4l1.2 15.85c0 0.233-0.133 0.384-0.4 0.45l-0.55 0.05c-0.3 0-0.45-0.133-0.45-0.399l-0.65-7.551-0.9-1.149-0.45-5.9c0-0.533 0.117-0.883 0.35-1.05l1.4-0.701z" fill="#724c26" fill-rule="evenodd"/><path d="m48.15 67.5 0.1 1.3l0.75-0.05c0.433-0.066 0.65-0.316 0.65-0.75-0.066-0.434-0.316-0.617-0.75-0.55l-0.75 0.05zm0.7-1.1c1.2-0.1 1.85 0.417 1.95 1.55 0.034 0.767-0.383 1.267-1.25 1.5l1.35 1.25 0.15 0.3c0.067 0.4-0.1 0.6-0.5 0.6-0.133 0.066-0.283 0.017-0.45-0.15l-1.8-1.85 0.1 1.6c0.067 0.4-0.1 0.6-0.5 0.6-0.333 0.067-0.533-0.1-0.6-0.5l-0.3-4.2c0-0.367 0.183-0.567 0.55-0.6l1.3-0.1z" fill="#724c26" fill-rule="evenodd"/><path d="m53.15 69.2 0.1 1.15 1.35-0.1c0.367-0.066 0.55 0.083 0.55 0.45 0.067 0.366-0.083 0.55-0.45 0.55l-1.95 0.15c-0.333 0.067-0.533-0.1-0.6-0.5l-0.3-4.05c0-0.467 0.183-0.7 0.55-0.7l1.8-0.15c0.333 0 0.533 0.15 0.6 0.45 0 0.366-0.167 0.55-0.5 0.55l-1.3 0.1 0.05 1.1 1.25-0.1c0.367 0 0.55 0.167 0.55 0.5 0.066 0.3-0.1 0.483-0.5 0.55l-1.2 0.05z" fill="#724c26" fill-rule="evenodd"/><path d="m58.3 65.6c1.067-0.1 1.617 0.133 1.65 0.7 0 0.3-0.133 0.483-0.4 0.55-0.367-0.167-0.75-0.233-1.15-0.2-0.933 0.1-1.367 0.7-1.3 1.8 0.133 1.066 0.65 1.583 1.55 1.55 0.233-0.033 0.467-0.1 0.7-0.2 0.233-0.133 0.383-0.2 0.45-0.2 0.133-0.034 0.25 0.017 0.35 0.15 0.1 0.1 0.15 0.2 0.15 0.3 0.034 0.567-0.5 0.9-1.6 1-0.733 0.067-1.367-0.15-1.9-0.65-0.5-0.5-0.783-1.133-0.85-1.9-0.034-0.767 0.167-1.417 0.6-1.95 0.433-0.567 1.017-0.883 1.75-0.95z" fill="#724c26" fill-rule="evenodd"/><path d="m62.35 65.9 0.35 4.2c0 0.367-0.167 0.583-0.5 0.65-0.4 0-0.6-0.184-0.6-0.55l-0.35-4.2c0-0.4 0.167-0.6 0.5-0.6 0.4-0.067 0.6 0.1 0.6 0.5z" fill="#724c26" fill-rule="evenodd"/><path d="m64.3 65.25 1.3-0.1c0.566-0.033 1.033 0.083 1.4 0.35 0.4 0.3 0.617 0.717 0.65 1.25s-0.117 0.983-0.45 1.35c-0.3 0.333-0.717 0.517-1.25 0.55l-0.85 0.05 0.1 1.25c0.066 0.4-0.1 0.6-0.5 0.6-0.4 0.067-0.6-0.116-0.6-0.55l-0.3-4.15c-0.067-0.4 0.1-0.6 0.5-0.6zm0.6 0.95 0.15 1.55 0.75-0.05c0.467-0.067 0.7-0.35 0.7-0.85-0.067-0.5-0.35-0.75-0.85-0.75l-0.75 0.1z" fill="#724c26" fill-rule="evenodd"/><path d="m68.65 65.55c-0.066-0.433 0.1-0.65 0.5-0.65l1.85-0.15c0.367-0.066 0.55 0.083 0.55 0.45 0.034 0.133 0 0.25-0.1 0.35-0.1 0.134-0.233 0.2-0.4 0.2l-1.3 0.1 0.1 1.1 1.2-0.1c0.333-0.034 0.534 0.117 0.6 0.45 0 0.367-0.167 0.55-0.5 0.55l-1.25 0.1 0.1 1.15 1.4-0.1c0.3-0.033 0.483 0.117 0.55 0.45 0 0.366-0.167 0.55-0.5 0.55l-1.9 0.15c-0.4 0-0.6-0.167-0.6-0.5l-0.3-4.1z" fill="#724c26" fill-rule="evenodd"/><path d="m117.2 74-54.4 4.05c-0.233 0-0.383-0.133-0.45-0.4 0-0.3 0.133-0.45 0.4-0.45l54.4-4.1c0.3 0 0.449 0.133 0.449 0.4s-0.132 0.434-0.399 0.5z" fill="#724c26" fill-rule="evenodd"/><path d="m117.6 79.35-54.4 4.05c-0.233 0-0.383-0.133-0.45-0.4 0-0.3 0.133-0.45 0.4-0.45l54.4-4.1c0.3 0 0.45 0.133 0.45 0.4s-0.134 0.433-0.4 0.5z" fill="#724c26" fill-rule="evenodd"/><path d="m118 84.7-54.4 4.05c-0.233 0-0.383-0.134-0.45-0.4 0-0.3 0.133-0.449 0.4-0.449l54.4-4.101c0.3 0 0.45 0.134 0.45 0.4s-0.133 0.433-0.4 0.5z" fill="#724c26" fill-rule="evenodd"/><path d="m118.4 90-54.4 4.1c-0.233 0-0.383-0.133-0.45-0.399 0-0.3 0.133-0.45 0.4-0.45l54.399-4.1c0.301 0 0.45 0.133 0.45 0.399 1e-3 0.3-0.132 0.45-0.399 0.45z" fill="#724c26" fill-rule="evenodd"/><path d="m118.8 95.35-69.65 5.25c-0.233 0-0.383-0.133-0.45-0.399 0-0.3 0.133-0.45 0.4-0.45l69.65-5.25c0.3 0 0.45 0.133 0.45 0.4 0 0.299-0.134 0.449-0.4 0.449z" fill="#724c26" fill-rule="evenodd"/><path d="m119.2 100.7-69.65 5.25c-0.233 0-0.383-0.134-0.45-0.4 0-0.3 0.133-0.45 0.4-0.45l69.65-5.25c0.3 0 0.449 0.134 0.449 0.4 1e-3 0.3-0.132 0.45-0.399 0.45z" fill="#724c26" fill-rule="evenodd"/><path d="m119.6 106.05-69.65 5.25c-0.233 0-0.383-0.133-0.45-0.399 0-0.301 0.133-0.45 0.4-0.45l69.65-5.25c0.3 0 0.45 0.133 0.45 0.399 0 0.3-0.134 0.45-0.4 0.45z" fill="#724c26" fill-rule="evenodd"/><path d="m120 111.4-69.65 5.25c-0.233 0-0.383-0.134-0.45-0.4 0-0.267 0.133-0.434 0.4-0.5l69.65-5.2c0.3 0 0.45 0.134 0.45 0.4 0 0.3-0.133 0.45-0.4 0.45z" fill="#724c26" fill-rule="evenodd"/><g fill-rule="evenodd"><path d="m132.15 73.75c-0.567-0.733-1.65-0.417-3.25 0.95-1.667 1.433-2.417 3.1-2.25 5 0.166 1.833-0.434 2.583-1.801 2.25-1.433-0.367-2.033-0.9-1.8-1.6 0.434-1.534 0.9-2.917 1.4-4.15 0.967-2.367 1.983-3.817 3.05-4.35 1.066-0.534 2.167-0.383 3.3 0.45 0.567 0.433 1.017 0.917 1.351 1.45z" fill="#d1b25d"/><path d="m134.55 71.5 0.4 0.3v0.05c0.8 0.767 1.267 1.8 1.399 3.1 0.134 1.3-0.1 2.466-0.699 3.5-0.367 0.633-2.717 3.733-7.051 9.3-2.566 3.267-7 8.883-13.3 16.85l-8.649 10.95c-1.7 2.2-2.551 4.283-2.551 6.25-0.066 2.867-0.25 5.017-0.55 6.45-0.733 3.533-2.25 6.333-4.55 8.4-1.9 1.699-4.167 2.35-6.8 1.949l-3.351-1.1c-1-0.533-1.916-1.3-2.75-2.3-1.667-1.934-2.1-4-1.3-6.2 1.101-2.967 3.517-5.583 7.25-7.85 2.101-1.267 4.417-2.317 6.95-3.15 1.134-0.434 2.25-1.283 3.35-2.55 0.934-1.267 1.45-1.967 1.551-2.101v0.101l7.149-12.05c7.267-12.301 12.15-20.55 14.65-24.75-0.233 1.2-0.033 2.017 0.6 2.45 0.467 0.333 1.066 0.316 1.8-0.05 0.733-0.366 1.367-0.983 1.9-1.85 0.533-0.833 0.833-1.667 0.9-2.5 0.033-0.833-0.184-1.434-0.65-1.8-0.733-0.466-1.634-0.25-2.7 0.65l1.95-3.05c0.634-0.767 1.417-0.967 2.35-0.6 0.067 0.034 0.95 0.567 2.65 1.6h0.052z" fill="#c6a954"/><path d="m128.45 72.95c-0.767 0.4-1.417 1.017-1.95 1.85-0.566 0.867-0.866 1.717-0.9 2.55-0.033 0.833 0.2 1.417 0.7 1.75 0.467 0.333 1.066 0.316 1.8-0.05 0.733-0.366 1.367-0.983 1.9-1.85 0.533-0.833 0.833-1.667 0.9-2.5 0.033-0.833-0.184-1.434-0.65-1.8-0.467-0.334-1.066-0.317-1.8 0.05zm3.65-2.95 0.051-0.05 0.199 0.2 0.2 0.15c0.8 0.8 1.267 1.85 1.4 3.15 0.1 1.267-0.134 2.433-0.7 3.5-0.366 0.667-2.717 3.767-7.05 9.3-2.566 3.267-7.017 8.883-13.351 16.85l-8.6 10.95c-1.7 2.2-2.566 4.283-2.6 6.25 0 2.7-0.167 4.851-0.5 6.45-0.733 3.5-2.25 6.283-4.551 8.35-3 2.7-6.233 3.034-9.699 1v-0.05h-0.05c-0.933-0.833-1.649-1.8-2.149-2.899-1-2.167-1.017-4.483-0.05-6.95 1.133-2.9 3.2-5.283 6.2-7.15 1.301-0.8 3.2-1.666 5.7-2.6 1.167-0.4 2.3-1.233 3.4-2.5 0.934-1.267 1.45-1.967 1.55-2.101v0.101l7.15-12.05c5.233-8.801 8.916-14.984 11.05-18.55 3.666-6.1 5.733-9.434 6.2-10 0.767-0.9 1.75-1.5 2.949-1.8 1.233-0.268 2.317-0.117 3.25 0.449z" fill="#fce191"/><g fill="#eacc76"><path d="m125.8 78.45c0.134 0.3 0.3 0.517 0.5 0.65 0.167 0.133 0.417 0.2 0.75 0.2-0.533 1.3-1.184 2.983-1.95 5.05l-2.05 5.85-3.55 4.5c1.5-4.667 3.6-10.083 6.3-16.25z"/><path d="m106.95 110.6-2.7 3.45c-1.4 1.867-2.233 3.601-2.5 5.2l-0.45 0.4c-0.434 0.399-2.333 1.316-5.7 2.75-2.933 1.199-4.866 2.6-5.8 4.199-1.133 1.967-2.35 4.867-3.649 8.7-0.334-0.333-0.684-0.816-1.051-1.45 1.067-2.566 2.351-4.966 3.851-7.199 2.066-3.101 4.2-5.25 6.399-6.45 2.9-1.566 5.717-4.351 8.45-8.351 2.867-4.233 4.517-8.267 4.95-12.1l4.4-7.4c-0.301 0.967-1.2 3.834-2.7 8.601-0.967 3.033-1.667 5.116-2.101 6.25l-1.399 3.4z"/><path d="m96.15 130.25c1.566-2.333 3.316-4 5.25-5-0.233 1.733-0.7 3.4-1.4 5-2.2 1.1-3.616 2.434-4.25 4-0.233 0.6-0.4 1.233-0.5 1.9-0.9 0.566-1.833 0.933-2.8 1.1 1.434-3.134 2.666-5.467 3.7-7z"/><path d="m115.95 99.2-4 5.1c2.7-9.399 4.866-16.35 6.5-20.85 4.6-7.634 7.083-11.667 7.45-12.1 0.5-0.534 1.033-0.95 1.6-1.25-1.833 3.066-3.684 6.5-5.55 10.3-1.767 3.633-3.017 6.567-3.75 8.8-0.733 2.2-1.483 5.533-2.25 10z"/><path d="m132.85 70.7c0.301 0.4 0.551 0.85 0.75 1.35-0.466 1.3-1.166 3.733-2.1 7.3l-4.75 6.15 3.2-8.2 0.05-0.1c0.467-0.667 0.75-1.333 0.85-2 0.667-1.667 1.334-3.167 2-4.5z"/><path d="m84.65 126.2c1.3-3.233 3.7-5.816 7.2-7.75-3.567 3.234-5.966 5.817-7.2 7.75z"/><path d="m131.65 69.8-1.601 3c-0.5-0.2-1.1-0.116-1.8 0.25l1.8-3.6c0.635 0.067 1.168 0.183 1.601 0.35z"/></g><path d="m92.15 135.35c-2.034 0.767-3.801 0.184-5.301-1.75-1.533-1.966-0.866-4.8 2-8.5 2.9-3.699 5.517-5.199 7.851-4.5 1.633 0.5 2.45 1.867 2.45 4.101 0 2.033-0.584 3.95-1.75 5.75-1.733 2.599-3.483 4.233-5.25 4.899z" fill="#fdf3d0"/><path d="m91.9 134.55c-1.967 0.767-3.717 0.184-5.25-1.75-1.567-2-0.9-4.85 2-8.55 2.866-3.7 5.483-5.2 7.85-4.5 1.634 0.5 2.45 1.866 2.45 4.1 0 2.067-0.601 3.983-1.8 5.75-1.733 2.6-3.483 4.25-5.25 4.95z" fill="url(#l)"/></g><use transform="matrix(1 0 0 -1 135.5 16.746)" x="-0.013" y="-69.264" width="52.449001" height="69.292" enable-background="new" xlink:href="#i"/><use transform="matrix(1 0 0 -1 135.5 16.746)" x="-0.013" y="-69.264" width="52.449001" height="69.292" enable-background="new" xlink:href="#h"/></g></g>
</svg>
