<?xml version="1.0" standalone="no"?>
<!DOCTYPE svg PUBLIC "-//W3C//DTD SVG 20010904//EN"
 "http://www.w3.org/TR/2001/REC-SVG-20010904/DTD/svg10.dtd">
<svg version="1.0" xmlns="http://www.w3.org/2000/svg"
 width="500.000000pt" height="500.000000pt" viewBox="0 0 500.000000 500.000000"
 preserveAspectRatio="xMidYMid meet">
<metadata>
Created by potrace 1.11, written by Peter Selinger 2001-2013
</metadata>
<g transform="translate(0.000000,500.000000) scale(0.100000,-0.100000)"
fill="#000000" stroke="none">
<path d="M2358 4735 c-2 -1 -37 -5 -78 -9 -41 -3 -86 -8 -100 -11 -123 -21
-165 -29 -230 -46 -677 -180 -1219 -639 -1497 -1269 -77 -175 -141 -391 -159
-535 -3 -22 -7 -46 -10 -53 -17 -54 -24 -379 -11 -528 28 -316 124 -614 301
-929 71 -126 204 -293 346 -436 219 -220 403 -346 700 -482 51 -23 221 -84
258 -92 9 -2 32 -8 50 -14 17 -5 32 -7 32 -4 0 3 6 1 13 -4 6 -6 19 -11 27
-11 8 0 49 -7 91 -16 41 -8 102 -18 135 -21 32 -3 77 -8 99 -11 55 -7 270 -6
363 1 691 54 1331 443 1708 1037 66 104 184 335 184 361 0 7 4 17 9 23 23 23
106 326 126 454 30 197 33 449 10 644 -14 115 -57 300 -99 421 -59 177 -117
300 -231 494 -62 106 -231 308 -356 426 -251 238 -512 391 -879 515 -39 13
-181 49 -220 55 -19 3 -42 8 -50 10 -8 2 -42 7 -75 11 -33 3 -69 8 -80 11 -21
5 -372 12 -377 8z"/>
</g>
</svg>
